# xmcd CD database file
#
# Track frame offsets:
#	150
#	9214
#	19743
#	33074
#	45412
#	54908
#	64263
#	77083
#	89979
#	100237
#	113385
#	126261
#	137664
#	150382
#	164166
#	176167
#	186611
#	199032
#	209195
#	218654
#	231938
#	241475
#	251804
#	261274
#	274436
#	287982
#	300342
#
# Disc length: 4163 seconds
#
# Revision: 0
# Processed by: cddbd v1.4PL0 Copyright (c) Steve Scherf et al.
# Submitted via: CDex 1.50
#
DISCID=8e10411b
DTITLE=Merle Haggard - Untamed Hawk [CD2]
DYEAR=1995
DGENRE=Country
TTITLE0=I'll Take A Chance
TTITLE1=Our Hearts Are Holding Hands
TTITLE2=Too Used To Being With You
TTITLE3=That Makes Two Of Us
TTITLE4=Forever And Ever
TTITLE5=Wait A Little Longer Please Jesus
TTITLE6=Swinging Doors
TTITLE7=Swinging Doors (Alt)
TTITLE8=The Girl Turned Ripe
TTITLE9=I Threw Away The Rose
TTITLE10=The Fugitive
TTITLE11=Loneliness Is Eating Me Alive
TTITLE12=Someone Told My Story
TTITLE13=I Threw Away The Rose
TTITLE14=Hang Up My Gloves
TTITLE15=The Longer You Wait
TTITLE16=The Bottle Let Me Down
TTITLE17=I Can't Stand Me
TTITLE18=Someone Else You've Known
TTITLE19=High On A Hilltop
TTITLE20=I'll Look Over You
TTITLE21=No More You And Me
TTITLE22=Mixed Up Mess Of A Heart
TTITLE23=I'm A Lonesome Fugitive
TTITLE24=Life In Prison
TTITLE25=House Of Memories
TTITLE26=All Of Me Belongs To You
EXTD=YEAR: 1995
EXTT0=
EXTT1=
EXTT2=
EXTT3=
EXTT4=
EXTT5=
EXTT6=
EXTT7=
EXTT8=
EXTT9=
EXTT10=
EXTT11=
EXTT12=
EXTT13=
EXTT14=
EXTT15=
EXTT16=
EXTT17=
EXTT18=
EXTT19=
EXTT20=
EXTT21=
EXTT22=
EXTT23=
EXTT24=
EXTT25=
EXTT26=
PLAYORDER=
